<svg height="3rem" style="height:3rem;" version="1.1" id="Calque_1" xmlns="http://www.w3.org/2000/svg" xmlns:xlink="http://www.w3.org/1999/xlink" x="0px" y="0px"
	 viewBox="0 0 40 40" style="enable-background:new 0 0 40 40;" xml:space="preserve">
<style type="text/css">
	.st0{fill:#D97247;}
	.st1{enable-background:new    ;}
	.st2{fill:#FFF6F3;}
</style>
<g>
	<circle class="st0" cx="20.3" cy="20.2" r="18"/>
</g>
<g class="st1">
	<path class="st2" d="M26.5,29H14v-2.6l4.5-4.5c1.3-1.4,2.2-2.3,2.6-2.8c0.4-0.5,0.7-1,0.9-1.5c0.2-0.5,0.3-0.9,0.3-1.4
		c0-0.7-0.2-1.2-0.6-1.6s-0.9-0.5-1.6-0.5c-0.7,0-1.4,0.2-2,0.5s-1.3,0.8-2,1.4L14,13.5c0.9-0.8,1.6-1.3,2.2-1.6
		c0.6-0.3,1.2-0.5,1.9-0.7s1.5-0.2,2.3-0.2c1.1,0,2.1,0.2,3,0.6c0.9,0.4,1.5,1,2,1.7c0.5,0.7,0.7,1.6,0.7,2.5c0,0.8-0.1,1.6-0.4,2.3
		s-0.7,1.5-1.3,2.2c-0.6,0.8-1.7,1.8-3.2,3.2l-2.3,2.2v0.2h7.8L26.5,29L26.5,29z"/>
</g>
</svg>
