<svg height="1rem" style="height:13rem;" version="1.1" id="Calque_1" xmlns="http://www.w3.org/2000/svg" xmlns:xlink="http://www.w3.org/1999/xlink" x="0px" y="0px"
	 viewBox="0 0 40 40" style="enable-background:new 0 0 40 40;" xml:space="preserve">
<style type="text/css">
	.st0{fill:#D97247;}
	.st1{enable-background:new    ;}
	.st2{fill:#FFF6F3;}
</style>
<g>
	<circle class="st0" cx="18.27" cy="20.18" r="18"/>
</g>
<g class="st1">
	<path class="st2" d="M23.64,16.45c0,1.12-0.34,2.06-1.01,2.84s-1.62,1.32-2.84,1.61v0.07c1.44,0.18,2.53,0.62,3.27,1.31
		c0.74,0.7,1.11,1.63,1.11,2.81c0,1.72-0.62,3.05-1.87,4.01c-1.25,0.96-3.02,1.43-5.33,1.43c-1.94,0-3.65-0.32-5.15-0.96v-3.21
		c0.69,0.35,1.45,0.63,2.28,0.85s1.65,0.33,2.47,0.33c1.25,0,2.16-0.21,2.76-0.63c0.59-0.42,0.89-1.1,0.89-2.04
		c0-0.84-0.34-1.43-1.03-1.78s-1.77-0.52-3.27-0.52h-1.35v-2.89h1.38c1.38,0,2.39-0.18,3.03-0.54c0.64-0.36,0.96-0.98,0.96-1.86
		c0-1.35-0.85-2.03-2.54-2.03c-0.59,0-1.18,0.1-1.79,0.29c-0.61,0.2-1.28,0.53-2.02,1.01l-1.75-2.6c1.63-1.17,3.57-1.76,5.82-1.76
		c1.85,0,3.31,0.38,4.38,1.12C23.11,14.07,23.64,15.11,23.64,16.45z"/>
</g>
</svg>
