<svg  height="3rem" style="height:3rem;" version="1.1" id="Calque_1" xmlns="http://www.w3.org/2000/svg" xmlns:xlink="http://www.w3.org/1999/xlink" x="0px" y="0px"
	 viewBox="0 0 40 40" style="enable-background:new 0 0 40 40;" xml:space="preserve">
<style type="text/css">
	.st0{fill:#D97247;}
	.st1{fill:none;}
	.st2{fill:#FFF6F3;}
</style>
<g>
	<circle class="st0" cx="20" cy="20" r="18"/>
</g>
<rect x="12.59" y="11.13" class="st1" width="21.41" height="27.87"/>
<g>
	<path class="st2" d="M26.9,14.37c0,1.25-0.38,2.31-1.13,3.19c-0.76,0.88-1.82,1.48-3.19,1.8v0.08c1.61,0.2,2.83,0.69,3.66,1.47
		c0.83,0.78,1.24,1.83,1.24,3.15c0,1.92-0.7,3.42-2.09,4.49s-3.39,1.61-5.98,1.61c-2.17,0-4.09-0.36-5.77-1.08v-3.6
		c0.77,0.39,1.63,0.71,2.56,0.96s1.85,0.37,2.76,0.37c1.4,0,2.42-0.24,3.09-0.71c0.67-0.47,1-1.24,1-2.28c0-0.94-0.38-1.6-1.15-2
		s-1.99-0.59-3.66-0.59h-1.52v-3.24h1.54c1.55,0,2.68-0.2,3.4-0.61c0.71-0.41,1.07-1.1,1.07-2.08c0-1.51-0.95-2.27-2.84-2.27
		c-0.66,0-1.32,0.11-2,0.33c-0.68,0.22-1.43,0.6-2.26,1.13l-1.96-2.91c1.82-1.31,4-1.97,6.52-1.97c2.07,0,3.7,0.42,4.9,1.26
		C26.3,11.71,26.9,12.87,26.9,14.37z"/>
</g>
</svg>
