<svg version="1.1" id="Calque_1" xmlns="http://www.w3.org/2000/svg" xmlns:xlink="http://www.w3.org/1999/xlink" x="0px" y="0px"
	 viewBox="0 0 40 40" style="enable-background:new 0 0 40 40;" xml:space="preserve">
<style type="text/css">
	.st0{fill:#D97247;}
	.st1{enable-background:new    ;}
	.st2{fill:#FFF6F3;}
</style>
<g>
	<circle class="st0" cx="20.27" cy="20.18" r="18"/>
</g>
<g class="st1">
	<path class="st2" d="M26.34,30.3H13.86v-2.62l4.48-4.53c1.33-1.36,2.19-2.3,2.6-2.83c0.41-0.52,0.7-1.01,0.88-1.46
		c0.18-0.45,0.27-0.91,0.27-1.39c0-0.72-0.2-1.25-0.59-1.6s-0.92-0.52-1.58-0.52c-0.69,0-1.36,0.16-2.01,0.48
		c-0.65,0.32-1.33,0.77-2.04,1.35l-2.05-2.43c0.88-0.75,1.61-1.28,2.19-1.59c0.58-0.31,1.21-0.55,1.89-0.71s1.45-0.25,2.29-0.25
		c1.11,0,2.1,0.2,2.95,0.61c0.85,0.41,1.52,0.98,1.99,1.71c0.47,0.73,0.71,1.57,0.71,2.51c0,0.82-0.14,1.59-0.43,2.31
		c-0.29,0.72-0.74,1.46-1.34,2.22c-0.61,0.76-1.67,1.83-3.2,3.23l-2.29,2.16v0.17h7.78V30.3z"/>
</g>
</svg>
